# xmcd CD database file
# Copyright (C) 1996 Ti Kan
#
# Track frame offsets:
#  150
#  13072
#  26942
#  40902
#  52242
#  62352
#  76122
#  87185
#  99820
#  111775
#  122472
#  133627
#  147015
#  158120
#  170215
#  185392
#
# Disc length: 2626 seconds
#
# Revision: 2
# Processed by: cddbd v1.4b41PL1 Copyright (c) Steve Scherf et al.
# Submitted via: CDWizzard Release:4.12
#
DISCID=cc0a4010
DTITLE=Nappy Brown - Don't Be Angry
DYEAR=1900
DGENRE=
TTITLE0=Is It True
TTITLE1=That Man
TTITLE2=I Wonder
TTITLE3=Two Faced Woman
TTITLE4=Just A Little Love
TTITLE5=It's Really You
TTITLE6=Don't Be Angry
TTITLE7=Land I Love
TTITLE8=I'm In The Mood
TTITLE9=Open Up That Door
TTITLE10=I Want To Live
TTITLE11=Skiddy Woe
TTITLE12=I'm Getting Lonesome
TTITLE13=I Cried Like A Baby
TTITLE14=Bye Bye Baby
TTITLE15=Little By Little
EXTD=
EXTT0=
EXTT1=
EXTT2=
EXTT3=
EXTT4=
EXTT5=
EXTT6=
EXTT7=
EXTT8=
EXTT9=
EXTT10=
EXTT11=
EXTT12=
EXTT13=
EXTT14=
EXTT15=
PLAYORDER=
